<svg width="24" height="24" viewBox="0 0 24 24" fill="none" xmlns="http://www.w3.org/2000/svg">
<path d="M11.614 12.822L6.368 18.068C6.27467 18.1613 6.16 18.2113 6.024 18.218C5.888 18.2247 5.76667 18.1747 5.66 18.068C5.55333 17.9613 5.5 17.8433 5.5 17.714C5.5 17.5847 5.55333 17.4667 5.66 17.36L10.906 12.114L5.66 6.868C5.56667 6.77467 5.51667 6.66 5.51 6.524C5.50333 6.388 5.55333 6.26667 5.66 6.16C5.76667 6.05333 5.88467 6 6.014 6C6.14333 6 6.26133 6.05333 6.368 6.16L11.614 11.406L16.86 6.16C16.9533 6.06667 17.0683 6.01667 17.205 6.01C17.3403 6.00333 17.4613 6.05333 17.568 6.16C17.6747 6.26667 17.728 6.38467 17.728 6.514C17.728 6.64333 17.6747 6.76133 17.568 6.868L12.322 12.114L17.568 17.36C17.6613 17.4533 17.7113 17.5683 17.718 17.705C17.7247 17.8403 17.6747 17.9613 17.568 18.068C17.4613 18.1747 17.3433 18.228 17.214 18.228C17.0847 18.228 16.9667 18.1747 16.86 18.068L11.614 12.822Z" fill="#83286D"/>
</svg>
