<svg width="32" height="32" viewBox="0 0 32 32" fill="none" xmlns="http://www.w3.org/2000/svg">
<path d="M16 22.0308C19.3306 22.0308 22.0307 19.3306 22.0307 16C22.0307 12.6693 19.3306 9.96925 16 9.96925C12.6692 9.96925 9.96924 12.6693 9.96924 16C9.96924 19.3306 12.6692 22.0308 16 22.0308Z" stroke="#83286D" stroke-linecap="round" stroke-linejoin="round"/>
<path d="M2.43079 22.0308V9.96925C2.43079 5.80587 5.80591 2.43075 9.96929 2.43075H22.0308C26.1942 2.43075 29.5693 5.80587 29.5693 9.96925V22.0308C29.5693 26.1941 26.1942 29.5693 22.0308 29.5693H9.96929C5.80591 29.5693 2.43079 26.1941 2.43079 22.0308Z" stroke="#83286D"/>
<path d="M24.2922 7.72275L24.3084 7.706" stroke="#83286D" stroke-linecap="round" stroke-linejoin="round"/>
</svg>
