<svg width="32" height="32" viewBox="0 0 32 32" fill="none" xmlns="http://www.w3.org/2000/svg">
<path d="M6.00005 23.0267C5.81072 23.0267 5.65249 22.9622 5.52538 22.8333C5.39827 22.7044 5.33427 22.5458 5.33338 22.3573C5.33249 22.1689 5.39649 22.0107 5.52538 21.8827C5.65427 21.7547 5.81249 21.6911 6.00005 21.692H26C26.1894 21.692 26.3476 21.756 26.4747 21.884C26.6027 22.012 26.6667 22.1707 26.6667 22.36C26.6667 22.5493 26.6027 22.7076 26.4747 22.8347C26.3467 22.9618 26.1885 23.0253 26 23.0253L6.00005 23.0267ZM6.00005 16.6667C5.81072 16.6667 5.65249 16.6027 5.52538 16.4747C5.39827 16.3467 5.33427 16.188 5.33338 15.9987C5.33249 15.8093 5.39649 15.6511 5.52538 15.524C5.65427 15.3969 5.81249 15.3333 6.00005 15.3333H26C26.1894 15.3333 26.3476 15.3973 26.4747 15.5253C26.6018 15.6533 26.6658 15.812 26.6667 16.0013C26.6676 16.1907 26.6036 16.3489 26.4747 16.476C26.3458 16.6031 26.1876 16.6667 26 16.6667H6.00005ZM6.00005 10.3067C5.81072 10.3067 5.65249 10.2431 5.52538 10.116C5.39738 9.988 5.33338 9.82933 5.33338 9.64C5.33338 9.45067 5.39738 9.29244 5.52538 9.16533C5.65338 9.03822 5.81161 8.97467 6.00005 8.97467H26C26.1894 8.97467 26.3476 9.03867 26.4747 9.16667C26.6018 9.29467 26.6658 9.45244 26.6667 9.64C26.6676 9.82756 26.6036 9.98578 26.4747 10.1147C26.3458 10.2436 26.1876 10.3076 26 10.3067H6.00005Z" fill="#83286D"/>
</svg>
