<svg width="32" height="32" viewBox="0 0 32 32" fill="none" xmlns="http://www.w3.org/2000/svg">
<path d="M0 16C0 7.16344 7.16344 0 16 0C24.8366 0 32 7.16344 32 16C32 24.8366 24.8366 32 16 32C7.16344 32 0 24.8366 0 16Z" fill="#FFF4FC"/>
<path d="M12.4241 13.4632C10.9481 13.7974 10.2101 13.9642 10.0343 14.5288C9.85914 15.0928 10.3619 15.6814 11.3681 16.858L11.6285 17.1622C11.9141 17.4964 12.0575 17.6638 12.1217 17.8703C12.1859 18.0773 12.1643 18.3005 12.1211 18.7463L12.0815 19.1525C11.9297 20.7227 11.8535 21.5075 12.3131 21.8561C12.7727 22.2047 13.4639 21.8867 14.845 21.2507L15.2032 21.0863C15.5956 20.9051 15.7918 20.8151 16 20.8151C16.2082 20.8151 16.4044 20.9051 16.7974 21.0863L17.1544 21.2507C18.5361 21.8867 19.2273 22.2047 19.6863 21.8567C20.1465 21.5075 20.0703 20.7227 19.9185 19.1525M20.6319 16.858C21.6381 15.682 22.1409 15.0934 21.9657 14.5288C21.7905 13.9642 21.0519 13.7968 19.5759 13.4632L19.1943 13.3768C18.7749 13.282 18.5655 13.2346 18.3969 13.1068C18.2283 12.979 18.121 12.7852 17.905 12.3976L17.7082 12.0448C16.948 10.6816 16.5682 10 16 10C15.4318 10 15.052 10.6816 14.2918 12.0448" stroke="#83286D" stroke-width="1.5" stroke-linecap="round"/>
</svg>
