<svg width="29" height="29" viewBox="0 0 29 29" fill="none" xmlns="http://www.w3.org/2000/svg">
<path d="M0.5 27.8244L3.00601 22.0505C1.08878 19.3277 0.230668 15.9986 0.592714 12.6878C0.954761 9.37705 2.51208 6.31227 4.97241 4.06863C7.43274 1.82499 10.627 0.556731 13.9556 0.501858C17.2842 0.446984 20.5185 1.60927 23.0514 3.7706C25.5842 5.93192 27.2417 8.94371 27.7125 12.2407C28.1834 15.5378 27.4354 18.8934 25.6089 21.6779C23.7824 24.4623 21.0029 26.4842 17.7921 27.3641C14.5813 28.244 11.1599 27.9214 8.16992 26.4569L0.5 27.8244Z" stroke="#83286D" stroke-linecap="round" stroke-linejoin="round"/>
<path d="M9.61279 11.1105C9.61279 11.312 9.6928 11.5052 9.83521 11.6477C9.97763 11.7902 10.1708 11.8702 10.3722 11.8702C10.5736 11.8702 10.7668 11.7902 10.9092 11.6477C11.0516 11.5052 11.1316 11.312 11.1316 11.1105V9.59103C11.1316 9.38954 11.0516 9.1963 10.9092 9.05383C10.7668 8.91135 10.5736 8.83131 10.3722 8.83131C10.1708 8.83131 9.97763 8.91135 9.83521 9.05383C9.6928 9.1963 9.61279 9.38954 9.61279 9.59103V11.1105ZM9.61279 11.1105C9.61279 13.1254 10.4129 15.0578 11.837 16.4825C13.2612 17.9073 15.1927 18.7077 17.2068 18.7077M17.2068 18.7077H18.7256C18.927 18.7077 19.1201 18.6277 19.2625 18.4852C19.405 18.3427 19.485 18.1495 19.485 17.948C19.485 17.7465 19.405 17.5532 19.2625 17.4108C19.1201 17.2683 18.927 17.1883 18.7256 17.1883H17.2068C17.0054 17.1883 16.8122 17.2683 16.6698 17.4108C16.5274 17.5532 16.4474 17.7465 16.4474 17.948C16.4474 18.1495 16.5274 18.3427 16.6698 18.4852C16.8122 18.6277 17.0054 18.7077 17.2068 18.7077Z" stroke="#83286D" stroke-linecap="round" stroke-linejoin="round"/>
</svg>
